{"title":"Justice League War 2014 1080p WEB-DL x264 6CH Pimp4003","uid":9517847,"size":2644436900,"categoryP":"video","categoryS":"hd___movies","magnet":"?xt=urn:btih:132a0b67110bfd26d402756136ad1f8557fc76ea&amp;dn=Justice+League+War+2014+1080p+WEB-DL+x264+6CH+Pimp4003&amp;tr=udp%3A%2F%2Ftracker.openbittorrent.com%3A80&amp;tr=udp%3A%2F%2Fopen.demonii.com%3A1337&amp;tr=udp%3A%2F%2Ftracker.coppersurfer.tk%3A6969&amp;tr=udp%3A%2F%2Fexodus.desync.com%3A6969","seeders":4,"leechers":0,"uploader":"shawnmurthy","files":-1,"time":1390564030,"description":"Get all Pimp4003 newest releases first at \n\nWWW.PIMP4003.NET with VIP downloads speed\n\nRegister here and you can chat, request movies, view upcoming uploads and much more\n\nUPLOAD UNLIMITED IMAGES AND UP TO 10MB IN FILE SIZES FOR FREE....\n &lt;a href=&quot;\nhttp://www.piczhub.com&quot; rel=&quot;nofollow&quot; target=&quot;_NEW&quot;&gt;\nhttp://www.piczhub.com&lt;/a&gt;\n\n\nPIMP4003 AND PIMPRG PRESENTS\n\nJustice League War 2014 1080p WEB-DL x264 6CH Pimp4003\n &lt;a href=&quot;\nhttp://www.imdb.com/title/tt3060952/&quot; rel=&quot;nofollow&quot; target=&quot;_NEW&quot;&gt;\nhttp://www.imdb.com/title/tt3060952/&lt;/a&gt;\n\nThe world's finest heroes found the Justice League in order to stop an alien invasion of Earth.\n\nDirector: Jay Oliva\nWriters: Heath Corson (adaptation), Geoff Johns (comic book), 4 more credits Â»\nStars: Michelle Monaghan, Alan Tudyk, Sean Astin | See full cast and crew Â»\n\nVideo\nID                                       : 2\nFormat                                   : AVC\nFormat/Info                              : Advanced Video Codec\nFormat profile                           : &lt;a class=&quot;__cf_email__&quot; href=&quot;/cdn-cgi/l/email-protection&quot; data-cfemail=&quot;f4b6958791989d9a91b4b8c1dac4&quot;&gt;[email&amp;#160;protected]&lt;/a&gt;&lt;script cf-hash='f9e31' type=&quot;text/javascript&quot;&gt;\n/* &lt;![CDATA[ */!function(){try{var t=&quot;currentScript&quot;in document?document.currentScript:function(){for(var t=document.getElementsByTagName(&quot;script&quot;),e=t.length;e--;)if(t[e].getAttribute(&quot;cf-hash&quot;))return t[e]}();if(t&amp;&amp;t.previousSibling){var e,r,n,i,c=t.previousSibling,a=c.getAttribute(&quot;data-cfemail&quot;);if(a){for(e=&quot;&quot;,r=parseInt(a.substr(0,2),16),n=2;a.length-n;n+=2)i=parseInt(a.substr(n,2),16)^r,e+=String.fromCharCode(i);e=document.createTextNode(e),c.parentNode.replaceChild(e,c)}}}catch(u){}}();/* ]]&gt; */&lt;/script&gt;\nFormat settings, CABAC                   : No\nFormat settings, ReFrames                : 1 frame\nMuxing mode                              : Container profile=&lt;a class=&quot;__cf_email__&quot; href=&quot;/cdn-cgi/l/email-protection&quot; data-cfemail=&quot;93d1f2e0f6fffafdf6d3a7bda2&quot;&gt;[email&amp;#160;protected]&lt;/a&gt;&lt;script cf-hash='f9e31' type=&quot;text/javascript&quot;&gt;\n/* &lt;![CDATA[ */!function(){try{var t=&quot;currentScript&quot;in document?document.currentScript:function(){for(var t=document.getElementsByTagName(&quot;script&quot;),e=t.length;e--;)if(t[e].getAttribute(&quot;cf-hash&quot;))return t[e]}();if(t&amp;&amp;t.previousSibling){var e,r,n,i,c=t.previousSibling,a=c.getAttribute(&quot;data-cfemail&quot;);if(a){for(e=&quot;&quot;,r=parseInt(a.substr(0,2),16),n=2;a.length-n;n+=2)i=parseInt(a.substr(n,2),16)^r,e+=String.fromCharCode(i);e=document.createTextNode(e),c.parentNode.replaceChild(e,c)}}}catch(u){}}();/* ]]&gt; */&lt;/script&gt;\nCodec ID                                 : avc1\nCodec ID/Info                            : Advanced Video Coding\nDuration                                 : 1h 19mn\nBit rate                                 : 4 244 Kbps\nWidth                                    : 1 920 pixels\nHeight                                   : 1 080 pixels\nDisplay aspect ratio                     : 16:9\nFrame rate mode                          : Constant\nFrame rate                               : 23.976 fps\nOriginal frame rate                      : 23.000 fps\nColor space                              : YUV\nChroma subsampling                       : 4:2:0\nBit depth                                : 8 bits\nScan type                                : Progressive\nBits/(Pixel*Frame)                       : 0.085\nStream size                              : 2.35 GiB (96%)\nWriting library                          : ointer\nLanguage                                 : English\n\nAudio\nID                                       : 1\nFormat                                   : AAC\nFormat/Info                              : Advanced Audio Codec\nFormat profile                           : LC\nCodec ID                                 : 40\nDuration                                 : 1h 19mn\nBit rate mode                            : Constant\nBit rate                                 : 192 Kbps\nChannel(s)                               : 6 channels\nChannel positions                        : Front: L C R, Side: L R, LFE\nSampling rate                            : 48.0 KHz\nCompression mode                         : Lossy\nStream size                              : 109 MiB (4%)\nLanguage                                 : English\n &lt;a href=&quot;\nhttp://someimage.com/O5D1Gym&quot; rel=&quot;nofollow&quot; target=&quot;_NEW&quot;&gt;\nhttp://someimage.com/O5D1Gym&lt;/a&gt; &lt;a href=&quot;\nhttp://someimage.com/o07oGdk&quot; rel=&quot;nofollow&quot; target=&quot;_NEW&quot;&gt;\nhttp://someimage.com/o07oGdk&lt;/a&gt; &lt;a href=&quot;\nhttp://someimage.com/TPGcAmL&quot; rel=&quot;nofollow&quot; target=&quot;_NEW&quot;&gt;\nhttp://someimage.com/TPGcAmL&lt;/a&gt; &lt;a href=&quot;\nhttp://someimage.com/xDT8O7L&quot; rel=&quot;nofollow&quot; target=&quot;_NEW&quot;&gt;\nhttp://someimage.com/xDT8O7L&lt;/a&gt; &lt;a href=&quot;\nhttp://someimage.com/HErmAUd&quot; rel=&quot;nofollow&quot; target=&quot;_NEW&quot;&gt;\nhttp://someimage.com/HErmAUd&lt;/a&gt; &lt;a href=&quot;\nhttp://someimage.com/6jpl9nz&quot; rel=&quot;nofollow&quot; target=&quot;_NEW&quot;&gt;\nhttp://someimage.com/6jpl9nz&lt;/a&gt; &lt;a href=&quot;\nhttp://someimage.com/GqKp5hs&quot; rel=&quot;nofollow&quot; target=&quot;_NEW&quot;&gt;\nhttp://someimage.com/GqKp5hs&lt;/a&gt; &lt;a href=&quot;\nhttp://someimage.com/wt4TWNS&quot; rel=&quot;nofollow&quot; target=&quot;_NEW&quot;&gt;\nhttp://someimage.com/wt4TWNS&lt;/a&gt;\n","torrent":{"xt":"urn:btih:132a0b67110bfd26d402756136ad1f8557fc76ea","amp;dn":"Justice+League+War+2014+1080p+WEB-DL+x264+6CH+Pimp4003","amp;tr":["udp%3A%2F%2Ftracker.openbittorrent.com%3A80","udp%3A%2F%2Fopen.demonii.com%3A1337","udp%3A%2F%2Ftracker.coppersurfer.tk%3A6969","udp%3A%2F%2Fexodus.desync.com%3A6969"],"infoHash":"132a0b67110bfd26d402756136ad1f8557fc76ea","infoHashBuffer":{"type":"Buffer","data":[19,42,11,103,17,11,253,38,212,2,117,97,54,173,31,133,87,252,118,234]},"announce":[],"urlList":[]}}